<svg xmlns="http://www.w3.org/2000/svg" viewBox="0.0 0.0 1.0 1.0" height="256px" width="256px"><g transform="scale(1,-1) translate(0, -1.0)"><path fill="none" stroke="black" stroke-width=".005" stroke-opacity="1.0"  filling="0" d="M0.2919999957084656 -0.009999999776482582 C0.34599998593330383 -0.009999999776482582 0.4059999883174896 0.004999999888241291 0.4429999887943268 0.027000000700354576 L0.4429999887943268 0.1289999932050705 C0.4169999957084656 0.10599999874830246 0.3619999885559082 0.07699999958276749 0.296999990940094 0.07699999958276749 C0.23000000417232513 0.07699999958276749 0.14800000190734863 0.11900000274181366 0.14800000190734863 0.2280000001192093 C0.14800000190734863 0.3100000023841858 0.20399999618530273 0.3790000081062317 0.29499998688697815 0.3790000081062317 C0.3490000069141388 0.3790000081062317 0.4000000059604645 0.3540000021457672 0.4429999887943268 0.32499998807907104 L0.4429999887943268 0.4269999861717224 C0.4009999930858612 0.45100000500679016 0.3409999907016754 0.4659999907016754 0.2919999957084656 0.4659999907016754 C0.15000000596046448 0.4659999907016754 0.05000000074505806 0.3540000021457672 0.05000000074505806 0.2280000001192093 C0.05000000074505806 0.07199999690055847 0.16899999976158142 -0.009999999776482582 0.2919999957084656 -0.009999999776482582"></path></g></svg>